<?xml version="1.0" encoding="UTF-8"?>
<svg version="1.1" viewBox="340 180 1480 900" preserveAspectRatio="xMidYMid slice" xmlns="http://www.w3.org/2000/svg" fill="currentColor">
<path transform="translate(365,245)" d="m0 0h324l1 1v319l-2 1h-329l-7-1-1-1v-318z"/>
<path transform="translate(1260,335)" d="m0 0h83l5 8 10 24 19 46 8 19 38 90 13 32 15 36 5 15v38l-9 4-11 6-7 7-11 14-33 44-14 19-42 56-13 18-10 13-12 16-11 15-7 9-8 9-11 8-16 8-13 4-7 1h-280l-1-149-1-40-4-19-5-12-8-13-8-10-9-8-14-9-12-6-13-4-10-1-462-1 1-5 13-23 9-16 4-6h16l1 34 2 2 4 1h219l6-1 1-17 5-2h38l1 13 2 4 2 1h19l-1-7-6-7-4-4h336l1 1v37l-4 6-12 13-10 11-9 13-4 11v156l3 7 6 4 5 1h161l13-2 9-6 8-9 12-18 11-16 10-15 12-17 8-12 21-31 13-19 11-17 3-9v-53l-2-16-22-76-16-55-14-48-13-45-9-32v-11l4-6zm-841 253-5 3-2 3v8l5 5 9 1 6-5v-9l-3-5-2-1z"/>
<path transform="translate(491,644)" d="m0 0h364l16 4 14 7 10 9 7 7 9 14 5 14 2 10v184h-86l-8-13-10-16-10-15-8-5-3-1-95-1h-225l-26 1-5 3-7 8-9 16-5 3h-37l-10-4-6-7-2-7 1-10 8-16 10-18 26-46 12-21 15-27 8-14 13-23 11-19 7-9 8-6z"/>
<path transform="translate(1449,672)" d="m0 0h118l1 24 1 3 17 11 14 11 6 5 7 8 8 10 9 14 8 15 7 21 2 12 1 14-12 1-256 1-5 5-44 66-2 1h-42l-5-1 6-9 10-13 13-18 13-17 27-36 14-19 12-16 13-18 20-26 14-19 21-28z"/>
<path transform="translate(1593,832)" d="m0 0h15l8 1v27l-3 20-6 21-9 19-11 16-9 10-7 8-14 11-13 8-16 8-18 6-16 3-9 1h-21l-23-4-21-7-21-11-14-11-9-8-9-11-7-9-10-18-5-13v-7l10-16 10-15 15-23 4-5z"/>
<path transform="translate(489,854)" d="m0 0h270v11l-3 19-4 15-6 14-8 14-9 12-9 10-11 11-13 9-17 10-18 7-18 4-8 1h-26l-25-5-21-9-12-7-13-9-12-11-9-10-12-17-8-17-5-15-4-20-1-15z"/>
<path transform="translate(772,495)" d="m0 0 282 1 10 3 11 7 7 7 6 11 4 16v25l-3 1h-308l-7-2-10-19-9-17-2-8 1-10 4-7 6-5z"/>
<path transform="translate(1313,202)" d="m0 0h45l5 3 3 7v91l-3 6-7 5-78 1-3-3-10-35-3-7-85-1-10-3-7-6-4-9v-16l2-1 134-1 7-10 13-20z"/>
<path transform="translate(1292,527)" d="m0 0h3l10 35 14 50 1 6v59l-1 1h-51l-5-4v-132l3-5 10-5z"/>
<path transform="translate(419,718)" d="m0 0h5l-5 12-8 14-7 16h-8l2-6 12-22 7-13z"/>
</svg>
